<svg width="508.33" height="508.36" xmlns="http://www.w3.org/2000/svg">

 <title/>
 <g>
  <title>background</title>
  <rect fill="none" id="canvas_background" height="402" width="582" y="-1" x="-1"/>
 </g>
 <g>
  <title>Layer 1</title>
  <path fill-rule="evenodd" fill="#e54a35" id="svg_1" d="m483.17,27.9c11.45,15.13 16.61,40.21 19.15,70.7c3.36,45.5 4.71,100.1 6,156.52c-1.67,57.47 -2.35,115.43 -6,156.52c-2.88,31.54 -9,52.66 -19.22,65.47c-13,12.79 -37.94,23.59 -73.5,26.15c-43.25,3.69 -96.61,3.65 -155.48,5.1c-65.44,-1.12 -109.82,-0.64 -156.38,-5.08c-36.32,-2.52 -60.08,-13.19 -74.7,-26.07c-10.83,-14.54 -14,-30 -17,-66.24c-3.75,-41.85 -4.58,-98.56 -6,-155.54c2.13,-56.68 2.26,-113.81 6.03,-156.51c2.53,-33.69 6.52,-56.34 16.75,-70.74c14.35,-12.23 38.83,-18.31 75.35,-21.31c50,-5.85 102.06,-7 155.88,-6.87c55.39,0.09 108.56,1.67 156,6.34c32,2.56 58.48,8.07 73.07,21.56l0.05,0z" class="cls-1"/>
  <rect fill="#ffffff" id="svg_2" y="490.170011" x="175.4" width="25.16" transform="rotate(-59.470001220703125 -67.31999969482432,327.23001098632807) " height="117.82" class="cls-2"/>
  <rect fill="#ffffff" id="svg_3" y="632.559998" x="142.159997" width="25.16" transform="rotate(-74.94999694824219 -83.05000305175771,425.0599975585938) " height="117.82" class="cls-2"/>
  <rect fill="#ffffff" id="svg_4" y="760.269996" x="118.510003" width="25.16" transform="rotate(-84.7300033569336 -100.12999725341804,509.58999633789057) " height="117.82" class="cls-2"/>
  <rect fill="#ffffff" id="svg_5" y="332.79" x="167.9" width="117.83" height="25.17" class="cls-2"/>
  <path fill="#ffffff" id="svg_6" d="m325.87,391.89a58.28,58.28 0 0 1 -0.2,5.88l0,0.1l-188.5,0s-5.88,0 -5.88,-0.1l-0.2,0l0,-122.59l20.08,0l0,102.84l154.57,0l0,-102.84l20.13,0l0,116.71z" class="cls-2"/>
  <rect fill="#ffffff" id="svg_7" y="317.059993" x="229.030002" width="25.17" transform="rotate(-34.290000915527344 -52.50999832153332,195.28999328613276) " height="117.83" class="cls-2"/>
  <rect fill="#ffffff" id="svg_8" y="161.22" x="307.81" width="25.17" transform="rotate(-9.850000381469727 -24.22999954223633,59.47999954223633) " height="117.82" class="cls-2"/>
 </g>
</svg>