<svg width="72" height="72" xmlns="http://www.w3.org/2000/svg">

 <g>
  <title>background</title>
  <rect fill="none" id="canvas_background" height="402" width="582" y="-1" x="-1"/>
 </g>
 <g>
  <title>Layer 1</title>
  <path id="svg_2" fill="#e54a35" d="m7.859594,71.859594l56,0c4.41828,0 8,-3.58172 8,-8l0,-56c0,-4.41828 -3.58172,-8 -8,-8l-56,0c-4.41828,0 -8,3.58172 -8,8l0,56c0,4.41828 3.58172,8 8,8z"/>
  <path id="svg_3" fill="#FFF" d="m42.08601,53.59229l-19.11141,0.00886l-0.00165,-4.04727l19.11059,-0.00979l0.00247,4.0482l0,0zm12.91399,-22.92146l-3.26931,-18.67083l-4.02196,0.69203l3.26883,18.67083l4.02244,-0.69203l0,0zm-12.45445,13.68388l-19.02985,-1.73868l-0.37468,4.03106l19.0302,1.73706l0.37433,-4.02944l0,0zm1.25545,-5.28156l-18.45502,-4.91923l-1.06035,3.90823l18.45631,4.91982l1.05906,-3.90882l0,0zm2.40935,-4.62951l-16.4609,-9.62718l-2.07463,3.48507l16.46172,9.62776l2.07381,-3.48565l0,0zm4.0363,-2.83476l-3.37215,2.27944l-10.7679,-15.65647l3.37262,-2.28015l10.76743,15.65718zm-4.91507,8.66955l3.24839,0l0,19.72157l-31.57997,0l0,-19.72157l3.26484,0l0,16.54592l25.06674,0l0,-16.54592z"/>
 </g>
</svg>